<?xml version="1.0" encoding="UTF-8"?>
<svg xmlns="http://www.w3.org/2000/svg" viewBox="0 0 720 980" width="720" height="980" role="img" aria-label="QR MindPrep Marketing">
  <defs>
    <linearGradient id="mp-grad-dark" x1="0" y1="0" x2="1" y2="1">
      <stop offset="0%" stop-color="#1a1f48"/>
      <stop offset="100%" stop-color="#0b1020"/>
    </linearGradient>
    <linearGradient id="mp-inner-dark" x1="0" y1="0" x2="0" y2="1">
      <stop offset="0%" stop-color="#7c7dff" stop-opacity="0.10"/>
      <stop offset="100%" stop-color="#a78bfa" stop-opacity="0.00"/>
    </linearGradient>
    <filter id="mp-shadow-dark" x="-10%" y="-10%" width="120%" height="120%">
      <feGaussianBlur in="SourceAlpha" stdDeviation="14"/>
      <feOffset dx="0" dy="10" result="off"/>
      <feComponentTransfer><feFuncA type="linear" slope="0.35"/></feComponentTransfer>
      <feMerge><feMergeNode/><feMergeNode in="SourceGraphic"/></feMerge>
    </filter>
  </defs>

  <!-- Background gradient -->
  <rect width="720" height="980" fill="url(#mp-grad-dark)"/>

  <!-- Premium card -->
  <g filter="url(#mp-shadow-dark)">
    <rect x="56" y="56" width="608" height="868"
          rx="36" ry="36" fill="#0f1530"/>
    <rect x="56" y="56" width="608" height="868"
          rx="36" ry="36" fill="url(#mp-inner-dark)"/>
  </g>

  <!-- Brand row -->
  <g font-family="Inter, ui-sans-serif, system-ui, -apple-system, Segoe UI, Roboto, sans-serif">
    <g transform="translate(92, 112)">
      <rect width="44" height="44" rx="12" fill="#7c7dff"/>
      <text x="22" y="29" text-anchor="middle" font-size="22" font-weight="800" fill="#ffffff">M</text>
      <text x="60" y="22" font-size="20" font-weight="800" fill="#ffffff">MindPrep</text>
      <text x="60" y="40" font-size="12" font-weight="500" fill="#a4adc6">Smarter prep. Better results.</text>
    </g>
    <g transform="translate(628, 112)" text-anchor="end">
      <rect x="-148" y="-4" width="148" height="34" rx="17" fill="#7c7dff" fill-opacity="0.12"/>
      <text x="-74" y="18" text-anchor="middle" font-size="13" font-weight="700" fill="#7c7dff">✨ Marketing</text>
    </g>

    <!-- CTA -->
    <text x="360" y="220" text-anchor="middle" font-size="22" font-weight="700" fill="#ffffff">Scanner pour commencer votre préparation intelligente</text>
    <text x="360" y="250" text-anchor="middle" font-size="14" font-weight="500" fill="#a4adc6">Préparation IA aux examens &amp; concours</text>

    <!-- QR background panel -->
    <rect x="96" y="256" width="528" height="528" rx="24" fill="#ffffff"
          stroke="#7c7dff" stroke-opacity="0.18" stroke-width="2"/>

    <!-- QR modules -->
    <path d="M120 280h12.972972972972974v12.972972972972974h-12.972972972972974zM132.97297297297297 280h12.972972972972974v12.972972972972974h-12.972972972972974zM145.94594594594594 280h12.972972972972974v12.972972972972974h-12.972972972972974zM158.9189189189189 280h12.972972972972974v12.972972972972974h-12.972972972972974zM171.8918918918919 280h12.972972972972974v12.972972972972974h-12.972972972972974zM184.86486486486487 280h12.972972972972974v12.972972972972974h-12.972972972972974zM197.83783783783784 280h12.972972972972974v12.972972972972974h-12.972972972972974zM223.7837837837838 280h12.972972972972974v12.972972972972974h-12.972972972972974zM249.72972972972974 280h12.972972972972974v12.972972972972974h-12.972972972972974zM275.6756756756757 280h12.972972972972974v12.972972972972974h-12.972972972972974zM288.64864864864865 280h12.972972972972974v12.972972972972974h-12.972972972972974zM301.62162162162167 280h12.972972972972974v12.972972972972974h-12.972972972972974zM353.51351351351354 280h12.972972972972974v12.972972972972974h-12.972972972972974zM366.4864864864865 280h12.972972972972974v12.972972972972974h-12.972972972972974zM379.4594594594595 280h12.972972972972974v12.972972972972974h-12.972972972972974zM392.43243243243245 280h12.972972972972974v12.972972972972974h-12.972972972972974zM405.4054054054054 280h12.972972972972974v12.972972972972974h-12.972972972972974zM418.3783783783784 280h12.972972972972974v12.972972972972974h-12.972972972972974zM483.2432432432433 280h12.972972972972974v12.972972972972974h-12.972972972972974zM509.1891891891892 280h12.972972972972974v12.972972972972974h-12.972972972972974zM522.1621621621622 280h12.972972972972974v12.972972972972974h-12.972972972972974zM535.1351351351352 280h12.972972972972974v12.972972972972974h-12.972972972972974zM548.1081081081081 280h12.972972972972974v12.972972972972974h-12.972972972972974zM561.081081081081 280h12.972972972972974v12.972972972972974h-12.972972972972974zM574.0540540540541 280h12.972972972972974v12.972972972972974h-12.972972972972974zM587.0270270270271 280h12.972972972972974v12.972972972972974h-12.972972972972974zM120 292.97297297297297h12.972972972972974v12.972972972972974h-12.972972972972974zM197.83783783783784 292.97297297297297h12.972972972972974v12.972972972972974h-12.972972972972974zM223.7837837837838 292.97297297297297h12.972972972972974v12.972972972972974h-12.972972972972974zM249.72972972972974 292.97297297297297h12.972972972972974v12.972972972972974h-12.972972972972974zM262.7027027027027 292.97297297297297h12.972972972972974v12.972972972972974h-12.972972972972974zM301.62162162162167 292.97297297297297h12.972972972972974v12.972972972972974h-12.972972972972974zM327.5675675675676 292.97297297297297h12.972972972972974v12.972972972972974h-12.972972972972974zM405.4054054054054 292.97297297297297h12.972972972972974v12.972972972972974h-12.972972972972974zM418.3783783783784 292.97297297297297h12.972972972972974v12.972972972972974h-12.972972972972974zM431.35135135135135 292.97297297297297h12.972972972972974v12.972972972972974h-12.972972972972974zM444.3243243243243 292.97297297297297h12.972972972972974v12.972972972972974h-12.972972972972974zM457.2972972972973 292.97297297297297h12.972972972972974v12.972972972972974h-12.972972972972974zM509.1891891891892 292.97297297297297h12.972972972972974v12.972972972972974h-12.972972972972974zM587.0270270270271 292.97297297297297h12.972972972972974v12.972972972972974h-12.972972972972974zM120 305.94594594594594h12.972972972972974v12.972972972972974h-12.972972972972974zM145.94594594594594 305.94594594594594h12.972972972972974v12.972972972972974h-12.972972972972974zM158.9189189189189 305.94594594594594h12.972972972972974v12.972972972972974h-12.972972972972974zM171.8918918918919 305.94594594594594h12.972972972972974v12.972972972972974h-12.972972972972974zM197.83783783783784 305.94594594594594h12.972972972972974v12.972972972972974h-12.972972972972974zM262.7027027027027 305.94594594594594h12.972972972972974v12.972972972972974h-12.972972972972974zM275.6756756756757 305.94594594594594h12.972972972972974v12.972972972972974h-12.972972972972974zM327.5675675675676 305.94594594594594h12.972972972972974v12.972972972972974h-12.972972972972974zM366.4864864864865 305.94594594594594h12.972972972972974v12.972972972972974h-12.972972972972974zM379.4594594594595 305.94594594594594h12.972972972972974v12.972972972972974h-12.972972972972974zM405.4054054054054 305.94594594594594h12.972972972972974v12.972972972972974h-12.972972972972974zM418.3783783783784 305.94594594594594h12.972972972972974v12.972972972972974h-12.972972972972974zM431.35135135135135 305.94594594594594h12.972972972972974v12.972972972972974h-12.972972972972974zM444.3243243243243 305.94594594594594h12.972972972972974v12.972972972972974h-12.972972972972974zM470.2702702702703 305.94594594594594h12.972972972972974v12.972972972972974h-12.972972972972974zM483.2432432432433 305.94594594594594h12.972972972972974v12.972972972972974h-12.972972972972974zM509.1891891891892 305.94594594594594h12.972972972972974v12.972972972972974h-12.972972972972974zM535.1351351351352 305.94594594594594h12.972972972972974v12.972972972972974h-12.972972972972974zM548.1081081081081 305.94594594594594h12.972972972972974v12.972972972972974h-12.972972972972974zM561.081081081081 305.94594594594594h12.972972972972974v12.972972972972974h-12.972972972972974zM587.0270270270271 305.94594594594594h12.972972972972974v12.972972972972974h-12.972972972972974zM120 318.9189189189189h12.972972972972974v12.972972972972974h-12.972972972972974zM145.94594594594594 318.9189189189189h12.972972972972974v12.972972972972974h-12.972972972972974zM158.9189189189189 318.9189189189189h12.972972972972974v12.972972972972974h-12.972972972972974zM171.8918918918919 318.9189189189189h12.972972972972974v12.972972972972974h-12.972972972972974zM197.83783783783784 318.9189189189189h12.972972972972974v12.972972972972974h-12.972972972972974zM223.7837837837838 318.9189189189189h12.972972972972974v12.972972972972974h-12.972972972972974zM249.72972972972974 318.9189189189189h12.972972972972974v12.972972972972974h-12.972972972972974zM275.6756756756757 318.9189189189189h12.972972972972974v12.972972972972974h-12.972972972972974zM301.62162162162167 318.9189189189189h12.972972972972974v12.972972972972974h-12.972972972972974zM314.5945945945946 318.9189189189189h12.972972972972974v12.972972972972974h-12.972972972972974zM340.5405405405405 318.9189189189189h12.972972972972974v12.972972972972974h-12.972972972972974zM353.51351351351354 318.9189189189189h12.972972972972974v12.972972972972974h-12.972972972972974zM366.4864864864865 318.9189189189189h12.972972972972974v12.972972972972974h-12.972972972972974zM405.4054054054054 318.9189189189189h12.972972972972974v12.972972972972974h-12.972972972972974zM418.3783783783784 318.9189189189189h12.972972972972974v12.972972972972974h-12.972972972972974zM444.3243243243243 318.9189189189189h12.972972972972974v12.972972972972974h-12.972972972972974zM457.2972972972973 318.9189189189189h12.972972972972974v12.972972972972974h-12.972972972972974zM470.2702702702703 318.9189189189189h12.972972972972974v12.972972972972974h-12.972972972972974zM483.2432432432433 318.9189189189189h12.972972972972974v12.972972972972974h-12.972972972972974zM509.1891891891892 318.9189189189189h12.972972972972974v12.972972972972974h-12.972972972972974zM535.1351351351352 318.9189189189189h12.972972972972974v12.972972972972974h-12.972972972972974zM548.1081081081081 318.9189189189189h12.972972972972974v12.972972972972974h-12.972972972972974zM561.081081081081 318.9189189189189h12.972972972972974v12.972972972972974h-12.972972972972974zM587.0270270270271 318.9189189189189h12.972972972972974v12.972972972972974h-12.972972972972974zM120 331.8918918918919h12.972972972972974v12.972972972972974h-12.972972972972974zM145.94594594594594 331.8918918918919h12.972972972972974v12.972972972972974h-12.972972972972974zM158.9189189189189 331.8918918918919h12.972972972972974v12.972972972972974h-12.972972972972974zM171.8918918918919 331.8918918918919h12.972972972972974v12.972972972972974h-12.972972972972974zM197.83783783783784 331.8918918918919h12.972972972972974v12.972972972972974h-12.972972972972974zM236.75675675675677 331.8918918918919h12.972972972972974v12.972972972972974h-12.972972972972974zM249.72972972972974 331.8918918918919h12.972972972972974v12.972972972972974h-12.972972972972974zM275.6756756756757 331.8918918918919h12.972972972972974v12.972972972972974h-12.972972972972974zM340.5405405405405 331.8918918918919h12.972972972972974v12.972972972972974h-12.972972972972974zM366.4864864864865 331.8918918918919h12.972972972972974v12.972972972972974h-12.972972972972974zM431.35135135135135 331.8918918918919h12.972972972972974v12.972972972972974h-12.972972972972974zM444.3243243243243 331.8918918918919h12.972972972972974v12.972972972972974h-12.972972972972974zM457.2972972972973 331.8918918918919h12.972972972972974v12.972972972972974h-12.972972972972974zM470.2702702702703 331.8918918918919h12.972972972972974v12.972972972972974h-12.972972972972974zM483.2432432432433 331.8918918918919h12.972972972972974v12.972972972972974h-12.972972972972974zM509.1891891891892 331.8918918918919h12.972972972972974v12.972972972972974h-12.972972972972974zM535.1351351351352 331.8918918918919h12.972972972972974v12.972972972972974h-12.972972972972974zM548.1081081081081 331.8918918918919h12.972972972972974v12.972972972972974h-12.972972972972974zM561.081081081081 331.8918918918919h12.972972972972974v12.972972972972974h-12.972972972972974zM587.0270270270271 331.8918918918919h12.972972972972974v12.972972972972974h-12.972972972972974zM120 344.8648648648649h12.972972972972974v12.972972972972974h-12.972972972972974zM197.83783783783784 344.8648648648649h12.972972972972974v12.972972972972974h-12.972972972972974zM236.75675675675677 344.8648648648649h12.972972972972974v12.972972972972974h-12.972972972972974zM249.72972972972974 344.8648648648649h12.972972972972974v12.972972972972974h-12.972972972972974zM262.7027027027027 344.8648648648649h12.972972972972974v12.972972972972974h-12.972972972972974zM275.6756756756757 344.8648648648649h12.972972972972974v12.972972972972974h-12.972972972972974zM288.64864864864865 344.8648648648649h12.972972972972974v12.972972972972974h-12.972972972972974zM301.62162162162167 344.8648648648649h12.972972972972974v12.972972972972974h-12.972972972972974zM327.5675675675676 344.8648648648649h12.972972972972974v12.972972972972974h-12.972972972972974zM366.4864864864865 344.8648648648649h12.972972972972974v12.972972972972974h-12.972972972972974zM379.4594594594595 344.8648648648649h12.972972972972974v12.972972972972974h-12.972972972972974zM431.35135135135135 344.8648648648649h12.972972972972974v12.972972972972974h-12.972972972972974zM483.2432432432433 344.8648648648649h12.972972972972974v12.972972972972974h-12.972972972972974zM509.1891891891892 344.8648648648649h12.972972972972974v12.972972972972974h-12.972972972972974zM587.0270270270271 344.8648648648649h12.972972972972974v12.972972972972974h-12.972972972972974zM120 357.8378378378378h12.972972972972974v12.972972972972974h-12.972972972972974zM132.97297297297297 357.8378378378378h12.972972972972974v12.972972972972974h-12.972972972972974zM145.94594594594594 357.8378378378378h12.972972972972974v12.972972972972974h-12.972972972972974zM158.9189189189189 357.8378378378378h12.972972972972974v12.972972972972974h-12.972972972972974zM171.8918918918919 357.8378378378378h12.972972972972974v12.972972972972974h-12.972972972972974zM184.86486486486487 357.8378378378378h12.972972972972974v12.972972972972974h-12.972972972972974zM197.83783783783784 357.8378378378378h12.972972972972974v12.972972972972974h-12.972972972972974zM223.7837837837838 357.8378378378378h12.972972972972974v12.972972972972974h-12.972972972972974zM249.72972972972974 357.8378378378378h12.972972972972974v12.972972972972974h-12.972972972972974zM275.6756756756757 357.8378378378378h12.972972972972974v12.972972972972974h-12.972972972972974zM301.62162162162167 357.8378378378378h12.972972972972974v12.972972972972974h-12.972972972972974zM327.5675675675676 357.8378378378378h12.972972972972974v12.972972972972974h-12.972972972972974zM353.51351351351354 357.8378378378378h12.972972972972974v12.972972972972974h-12.972972972972974zM379.4594594594595 357.8378378378378h12.972972972972974v12.972972972972974h-12.972972972972974zM405.4054054054054 357.8378378378378h12.972972972972974v12.972972972972974h-12.972972972972974zM431.35135135135135 357.8378378378378h12.972972972972974v12.972972972972974h-12.972972972972974zM457.2972972972973 357.8378378378378h12.972972972972974v12.972972972972974h-12.972972972972974zM483.2432432432433 357.8378378378378h12.972972972972974v12.972972972972974h-12.972972972972974zM509.1891891891892 357.8378378378378h12.972972972972974v12.972972972972974h-12.972972972972974zM522.1621621621622 357.8378378378378h12.972972972972974v12.972972972972974h-12.972972972972974zM535.1351351351352 357.8378378378378h12.972972972972974v12.972972972972974h-12.972972972972974zM548.1081081081081 357.8378378378378h12.972972972972974v12.972972972972974h-12.972972972972974zM561.081081081081 357.8378378378378h12.972972972972974v12.972972972972974h-12.972972972972974zM574.0540540540541 357.8378378378378h12.972972972972974v12.972972972972974h-12.972972972972974zM587.0270270270271 357.8378378378378h12.972972972972974v12.972972972972974h-12.972972972972974zM223.7837837837838 370.81081081081084h12.972972972972974v12.972972972972974h-12.972972972972974zM249.72972972972974 370.81081081081084h12.972972972972974v12.972972972972974h-12.972972972972974zM262.7027027027027 370.81081081081084h12.972972972972974v12.972972972972974h-12.972972972972974zM275.6756756756757 370.81081081081084h12.972972972972974v12.972972972972974h-12.972972972972974zM301.62162162162167 370.81081081081084h12.972972972972974v12.972972972972974h-12.972972972972974zM327.5675675675676 370.81081081081084h12.972972972972974v12.972972972972974h-12.972972972972974zM340.5405405405405 370.81081081081084h12.972972972972974v12.972972972972974h-12.972972972972974zM353.51351351351354 370.81081081081084h12.972972972972974v12.972972972972974h-12.972972972972974zM405.4054054054054 370.81081081081084h12.972972972972974v12.972972972972974h-12.972972972972974zM418.3783783783784 370.81081081081084h12.972972972972974v12.972972972972974h-12.972972972972974zM470.2702702702703 370.81081081081084h12.972972972972974v12.972972972972974h-12.972972972972974zM483.2432432432433 370.81081081081084h12.972972972972974v12.972972972972974h-12.972972972972974zM120 383.7837837837838h12.972972972972974v12.972972972972974h-12.972972972972974zM145.94594594594594 383.7837837837838h12.972972972972974v12.972972972972974h-12.972972972972974zM158.9189189189189 383.7837837837838h12.972972972972974v12.972972972972974h-12.972972972972974zM184.86486486486487 383.7837837837838h12.972972972972974v12.972972972972974h-12.972972972972974zM197.83783783783784 383.7837837837838h12.972972972972974v12.972972972972974h-12.972972972972974zM210.81081081081084 383.7837837837838h12.972972972972974v12.972972972972974h-12.972972972972974zM236.75675675675677 383.7837837837838h12.972972972972974v12.972972972972974h-12.972972972972974zM249.72972972972974 383.7837837837838h12.972972972972974v12.972972972972974h-12.972972972972974zM275.6756756756757 383.7837837837838h12.972972972972974v12.972972972972974h-12.972972972972974zM288.64864864864865 383.7837837837838h12.972972972972974v12.972972972972974h-12.972972972972974zM314.5945945945946 383.7837837837838h12.972972972972974v12.972972972972974h-12.972972972972974zM327.5675675675676 383.7837837837838h12.972972972972974v12.972972972972974h-12.972972972972974zM340.5405405405405 383.7837837837838h12.972972972972974v12.972972972972974h-12.972972972972974zM353.51351351351354 383.7837837837838h12.972972972972974v12.972972972972974h-12.972972972972974zM366.4864864864865 383.7837837837838h12.972972972972974v12.972972972972974h-12.972972972972974zM392.43243243243245 383.7837837837838h12.972972972972974v12.972972972972974h-12.972972972972974zM418.3783783783784 383.7837837837838h12.972972972972974v12.972972972972974h-12.972972972972974zM457.2972972972973 383.7837837837838h12.972972972972974v12.972972972972974h-12.972972972972974zM509.1891891891892 383.7837837837838h12.972972972972974v12.972972972972974h-12.972972972972974zM548.1081081081081 383.7837837837838h12.972972972972974v12.972972972972974h-12.972972972972974zM574.0540540540541 383.7837837837838h12.972972972972974v12.972972972972974h-12.972972972972974zM587.0270270270271 383.7837837837838h12.972972972972974v12.972972972972974h-12.972972972972974zM120 396.7567567567568h12.972972972972974v12.972972972972974h-12.972972972972974zM132.97297297297297 396.7567567567568h12.972972972972974v12.972972972972974h-12.972972972972974zM158.9189189189189 396.7567567567568h12.972972972972974v12.972972972972974h-12.972972972972974zM184.86486486486487 396.7567567567568h12.972972972972974v12.972972972972974h-12.972972972972974zM236.75675675675677 396.7567567567568h12.972972972972974v12.972972972972974h-12.972972972972974zM249.72972972972974 396.7567567567568h12.972972972972974v12.972972972972974h-12.972972972972974zM314.5945945945946 396.7567567567568h12.972972972972974v12.972972972972974h-12.972972972972974zM340.5405405405405 396.7567567567568h12.972972972972974v12.972972972972974h-12.972972972972974zM366.4864864864865 396.7567567567568h12.972972972972974v12.972972972972974h-12.972972972972974zM379.4594594594595 396.7567567567568h12.972972972972974v12.972972972972974h-12.972972972972974zM392.43243243243245 396.7567567567568h12.972972972972974v12.972972972972974h-12.972972972972974zM405.4054054054054 396.7567567567568h12.972972972972974v12.972972972972974h-12.972972972972974zM418.3783783783784 396.7567567567568h12.972972972972974v12.972972972972974h-12.972972972972974zM444.3243243243243 396.7567567567568h12.972972972972974v12.972972972972974h-12.972972972972974zM483.2432432432433 396.7567567567568h12.972972972972974v12.972972972972974h-12.972972972972974zM496.21621621621625 396.7567567567568h12.972972972972974v12.972972972972974h-12.972972972972974zM574.0540540540541 396.7567567567568h12.972972972972974v12.972972972972974h-12.972972972972974zM158.9189189189189 409.72972972972974h12.972972972972974v12.972972972972974h-12.972972972972974zM171.8918918918919 409.72972972972974h12.972972972972974v12.972972972972974h-12.972972972972974zM197.83783783783784 409.72972972972974h12.972972972972974v12.972972972972974h-12.972972972972974zM210.81081081081084 409.72972972972974h12.972972972972974v12.972972972972974h-12.972972972972974zM236.75675675675677 409.72972972972974h12.972972972972974v12.972972972972974h-12.972972972972974zM262.7027027027027 409.72972972972974h12.972972972972974v12.972972972972974h-12.972972972972974zM275.6756756756757 409.72972972972974h12.972972972972974v12.972972972972974h-12.972972972972974zM288.64864864864865 409.72972972972974h12.972972972972974v12.972972972972974h-12.972972972972974zM301.62162162162167 409.72972972972974h12.972972972972974v12.972972972972974h-12.972972972972974zM327.5675675675676 409.72972972972974h12.972972972972974v12.972972972972974h-12.972972972972974zM353.51351351351354 409.72972972972974h12.972972972972974v12.972972972972974h-12.972972972972974zM392.43243243243245 409.72972972972974h12.972972972972974v12.972972972972974h-12.972972972972974zM418.3783783783784 409.72972972972974h12.972972972972974v12.972972972972974h-12.972972972972974zM431.35135135135135 409.72972972972974h12.972972972972974v12.972972972972974h-12.972972972972974zM457.2972972972973 409.72972972972974h12.972972972972974v12.972972972972974h-12.972972972972974zM483.2432432432433 409.72972972972974h12.972972972972974v12.972972972972974h-12.972972972972974zM522.1621621621622 409.72972972972974h12.972972972972974v12.972972972972974h-12.972972972972974zM548.1081081081081 409.72972972972974h12.972972972972974v12.972972972972974h-12.972972972972974zM120 422.7027027027027h12.972972972972974v12.972972972972974h-12.972972972972974zM145.94594594594594 422.7027027027027h12.972972972972974v12.972972972972974h-12.972972972972974zM158.9189189189189 422.7027027027027h12.972972972972974v12.972972972972974h-12.972972972972974zM223.7837837837838 422.7027027027027h12.972972972972974v12.972972972972974h-12.972972972972974zM236.75675675675677 422.7027027027027h12.972972972972974v12.972972972972974h-12.972972972972974zM249.72972972972974 422.7027027027027h12.972972972972974v12.972972972972974h-12.972972972972974zM262.7027027027027 422.7027027027027h12.972972972972974v12.972972972972974h-12.972972972972974zM275.6756756756757 422.7027027027027h12.972972972972974v12.972972972972974h-12.972972972972974zM301.62162162162167 422.7027027027027h12.972972972972974v12.972972972972974h-12.972972972972974zM314.5945945945946 422.7027027027027h12.972972972972974v12.972972972972974h-12.972972972972974zM379.4594594594595 422.7027027027027h12.972972972972974v12.972972972972974h-12.972972972972974zM418.3783783783784 422.7027027027027h12.972972972972974v12.972972972972974h-12.972972972972974zM444.3243243243243 422.7027027027027h12.972972972972974v12.972972972972974h-12.972972972972974zM457.2972972972973 422.7027027027027h12.972972972972974v12.972972972972974h-12.972972972972974zM483.2432432432433 422.7027027027027h12.972972972972974v12.972972972972974h-12.972972972972974zM496.21621621621625 422.7027027027027h12.972972972972974v12.972972972972974h-12.972972972972974zM535.1351351351352 422.7027027027027h12.972972972972974v12.972972972972974h-12.972972972972974zM548.1081081081081 422.7027027027027h12.972972972972974v12.972972972972974h-12.972972972972974zM561.081081081081 422.7027027027027h12.972972972972974v12.972972972972974h-12.972972972972974zM145.94594594594594 435.6756756756757h12.972972972972974v12.972972972972974h-12.972972972972974zM171.8918918918919 435.6756756756757h12.972972972972974v12.972972972972974h-12.972972972972974zM184.86486486486487 435.6756756756757h12.972972972972974v12.972972972972974h-12.972972972972974zM197.83783783783784 435.6756756756757h12.972972972972974v12.972972972972974h-12.972972972972974zM210.81081081081084 435.6756756756757h12.972972972972974v12.972972972972974h-12.972972972972974zM249.72972972972974 435.6756756756757h12.972972972972974v12.972972972972974h-12.972972972972974zM262.7027027027027 435.6756756756757h12.972972972972974v12.972972972972974h-12.972972972972974zM301.62162162162167 435.6756756756757h12.972972972972974v12.972972972972974h-12.972972972972974zM314.5945945945946 435.6756756756757h12.972972972972974v12.972972972972974h-12.972972972972974zM340.5405405405405 435.6756756756757h12.972972972972974v12.972972972972974h-12.972972972972974zM366.4864864864865 435.6756756756757h12.972972972972974v12.972972972972974h-12.972972972972974zM379.4594594594595 435.6756756756757h12.972972972972974v12.972972972972974h-12.972972972972974zM405.4054054054054 435.6756756756757h12.972972972972974v12.972972972972974h-12.972972972972974zM431.35135135135135 435.6756756756757h12.972972972972974v12.972972972972974h-12.972972972972974zM444.3243243243243 435.6756756756757h12.972972972972974v12.972972972972974h-12.972972972972974zM457.2972972972973 435.6756756756757h12.972972972972974v12.972972972972974h-12.972972972972974zM470.2702702702703 435.6756756756757h12.972972972972974v12.972972972972974h-12.972972972972974zM496.21621621621625 435.6756756756757h12.972972972972974v12.972972972972974h-12.972972972972974zM509.1891891891892 435.6756756756757h12.972972972972974v12.972972972972974h-12.972972972972974zM535.1351351351352 435.6756756756757h12.972972972972974v12.972972972972974h-12.972972972972974zM561.081081081081 435.6756756756757h12.972972972972974v12.972972972972974h-12.972972972972974zM574.0540540540541 435.6756756756757h12.972972972972974v12.972972972972974h-12.972972972972974zM587.0270270270271 435.6756756756757h12.972972972972974v12.972972972972974h-12.972972972972974zM120 448.64864864864865h12.972972972972974v12.972972972972974h-12.972972972972974zM132.97297297297297 448.64864864864865h12.972972972972974v12.972972972972974h-12.972972972972974zM158.9189189189189 448.64864864864865h12.972972972972974v12.972972972972974h-12.972972972972974zM184.86486486486487 448.64864864864865h12.972972972972974v12.972972972972974h-12.972972972972974zM301.62162162162167 448.64864864864865h12.972972972972974v12.972972972972974h-12.972972972972974zM314.5945945945946 448.64864864864865h12.972972972972974v12.972972972972974h-12.972972972972974zM327.5675675675676 448.64864864864865h12.972972972972974v12.972972972972974h-12.972972972972974zM340.5405405405405 448.64864864864865h12.972972972972974v12.972972972972974h-12.972972972972974zM366.4864864864865 448.64864864864865h12.972972972972974v12.972972972972974h-12.972972972972974zM431.35135135135135 448.64864864864865h12.972972972972974v12.972972972972974h-12.972972972972974zM470.2702702702703 448.64864864864865h12.972972972972974v12.972972972972974h-12.972972972972974zM483.2432432432433 448.64864864864865h12.972972972972974v12.972972972972974h-12.972972972972974zM496.21621621621625 448.64864864864865h12.972972972972974v12.972972972972974h-12.972972972972974zM509.1891891891892 448.64864864864865h12.972972972972974v12.972972972972974h-12.972972972972974zM522.1621621621622 448.64864864864865h12.972972972972974v12.972972972972974h-12.972972972972974zM535.1351351351352 448.64864864864865h12.972972972972974v12.972972972972974h-12.972972972972974zM548.1081081081081 448.64864864864865h12.972972972972974v12.972972972972974h-12.972972972972974zM574.0540540540541 448.64864864864865h12.972972972972974v12.972972972972974h-12.972972972972974zM587.0270270270271 448.64864864864865h12.972972972972974v12.972972972972974h-12.972972972972974zM120 461.62162162162167h12.972972972972974v12.972972972972974h-12.972972972972974zM132.97297297297297 461.62162162162167h12.972972972972974v12.972972972972974h-12.972972972972974zM145.94594594594594 461.62162162162167h12.972972972972974v12.972972972972974h-12.972972972972974zM158.9189189189189 461.62162162162167h12.972972972972974v12.972972972972974h-12.972972972972974zM197.83783783783784 461.62162162162167h12.972972972972974v12.972972972972974h-12.972972972972974zM210.81081081081084 461.62162162162167h12.972972972972974v12.972972972972974h-12.972972972972974zM236.75675675675677 461.62162162162167h12.972972972972974v12.972972972972974h-12.972972972972974zM249.72972972972974 461.62162162162167h12.972972972972974v12.972972972972974h-12.972972972972974zM262.7027027027027 461.62162162162167h12.972972972972974v12.972972972972974h-12.972972972972974zM327.5675675675676 461.62162162162167h12.972972972972974v12.972972972972974h-12.972972972972974zM340.5405405405405 461.62162162162167h12.972972972972974v12.972972972972974h-12.972972972972974zM366.4864864864865 461.62162162162167h12.972972972972974v12.972972972972974h-12.972972972972974zM392.43243243243245 461.62162162162167h12.972972972972974v12.972972972972974h-12.972972972972974zM405.4054054054054 461.62162162162167h12.972972972972974v12.972972972972974h-12.972972972972974zM444.3243243243243 461.62162162162167h12.972972972972974v12.972972972972974h-12.972972972972974zM457.2972972972973 461.62162162162167h12.972972972972974v12.972972972972974h-12.972972972972974zM496.21621621621625 461.62162162162167h12.972972972972974v12.972972972972974h-12.972972972972974zM509.1891891891892 461.62162162162167h12.972972972972974v12.972972972972974h-12.972972972972974zM535.1351351351352 461.62162162162167h12.972972972972974v12.972972972972974h-12.972972972972974zM561.081081081081 461.62162162162167h12.972972972972974v12.972972972972974h-12.972972972972974zM574.0540540540541 461.62162162162167h12.972972972972974v12.972972972972974h-12.972972972972974zM120 474.5945945945946h12.972972972972974v12.972972972972974h-12.972972972972974zM132.97297297297297 474.5945945945946h12.972972972972974v12.972972972972974h-12.972972972972974zM171.8918918918919 474.5945945945946h12.972972972972974v12.972972972972974h-12.972972972972974zM223.7837837837838 474.5945945945946h12.972972972972974v12.972972972972974h-12.972972972972974zM236.75675675675677 474.5945945945946h12.972972972972974v12.972972972972974h-12.972972972972974zM249.72972972972974 474.5945945945946h12.972972972972974v12.972972972972974h-12.972972972972974zM275.6756756756757 474.5945945945946h12.972972972972974v12.972972972972974h-12.972972972972974zM301.62162162162167 474.5945945945946h12.972972972972974v12.972972972972974h-12.972972972972974zM327.5675675675676 474.5945945945946h12.972972972972974v12.972972972972974h-12.972972972972974zM353.51351351351354 474.5945945945946h12.972972972972974v12.972972972972974h-12.972972972972974zM392.43243243243245 474.5945945945946h12.972972972972974v12.972972972972974h-12.972972972972974zM457.2972972972973 474.5945945945946h12.972972972972974v12.972972972972974h-12.972972972972974zM470.2702702702703 474.5945945945946h12.972972972972974v12.972972972972974h-12.972972972972974zM496.21621621621625 474.5945945945946h12.972972972972974v12.972972972972974h-12.972972972972974zM522.1621621621622 474.5945945945946h12.972972972972974v12.972972972972974h-12.972972972972974zM535.1351351351352 474.5945945945946h12.972972972972974v12.972972972972974h-12.972972972972974zM120 487.5675675675676h12.972972972972974v12.972972972972974h-12.972972972972974zM132.97297297297297 487.5675675675676h12.972972972972974v12.972972972972974h-12.972972972972974zM145.94594594594594 487.5675675675676h12.972972972972974v12.972972972972974h-12.972972972972974zM171.8918918918919 487.5675675675676h12.972972972972974v12.972972972972974h-12.972972972972974zM184.86486486486487 487.5675675675676h12.972972972972974v12.972972972972974h-12.972972972972974zM197.83783783783784 487.5675675675676h12.972972972972974v12.972972972972974h-12.972972972972974zM236.75675675675677 487.5675675675676h12.972972972972974v12.972972972972974h-12.972972972972974zM262.7027027027027 487.5675675675676h12.972972972972974v12.972972972972974h-12.972972972972974zM301.62162162162167 487.5675675675676h12.972972972972974v12.972972972972974h-12.972972972972974zM314.5945945945946 487.5675675675676h12.972972972972974v12.972972972972974h-12.972972972972974zM353.51351351351354 487.5675675675676h12.972972972972974v12.972972972972974h-12.972972972972974zM366.4864864864865 487.5675675675676h12.972972972972974v12.972972972972974h-12.972972972972974zM392.43243243243245 487.5675675675676h12.972972972972974v12.972972972972974h-12.972972972972974zM405.4054054054054 487.5675675675676h12.972972972972974v12.972972972972974h-12.972972972972974zM431.35135135135135 487.5675675675676h12.972972972972974v12.972972972972974h-12.972972972972974zM444.3243243243243 487.5675675675676h12.972972972972974v12.972972972972974h-12.972972972972974zM548.1081081081081 487.5675675675676h12.972972972972974v12.972972972972974h-12.972972972972974zM561.081081081081 487.5675675675676h12.972972972972974v12.972972972972974h-12.972972972972974zM574.0540540540541 487.5675675675676h12.972972972972974v12.972972972972974h-12.972972972972974zM120 500.5405405405405h12.972972972972974v12.972972972972974h-12.972972972972974zM158.9189189189189 500.5405405405405h12.972972972972974v12.972972972972974h-12.972972972972974zM171.8918918918919 500.5405405405405h12.972972972972974v12.972972972972974h-12.972972972972974zM210.81081081081084 500.5405405405405h12.972972972972974v12.972972972972974h-12.972972972972974zM223.7837837837838 500.5405405405405h12.972972972972974v12.972972972972974h-12.972972972972974zM236.75675675675677 500.5405405405405h12.972972972972974v12.972972972972974h-12.972972972972974zM288.64864864864865 500.5405405405405h12.972972972972974v12.972972972972974h-12.972972972972974zM301.62162162162167 500.5405405405405h12.972972972972974v12.972972972972974h-12.972972972972974zM314.5945945945946 500.5405405405405h12.972972972972974v12.972972972972974h-12.972972972972974zM340.5405405405405 500.5405405405405h12.972972972972974v12.972972972972974h-12.972972972972974zM366.4864864864865 500.5405405405405h12.972972972972974v12.972972972972974h-12.972972972972974zM379.4594594594595 500.5405405405405h12.972972972972974v12.972972972972974h-12.972972972972974zM392.43243243243245 500.5405405405405h12.972972972972974v12.972972972972974h-12.972972972972974zM405.4054054054054 500.5405405405405h12.972972972972974v12.972972972972974h-12.972972972972974zM418.3783783783784 500.5405405405405h12.972972972972974v12.972972972972974h-12.972972972972974zM431.35135135135135 500.5405405405405h12.972972972972974v12.972972972972974h-12.972972972972974zM444.3243243243243 500.5405405405405h12.972972972972974v12.972972972972974h-12.972972972972974zM457.2972972972973 500.5405405405405h12.972972972972974v12.972972972972974h-12.972972972972974zM470.2702702702703 500.5405405405405h12.972972972972974v12.972972972972974h-12.972972972972974zM496.21621621621625 500.5405405405405h12.972972972972974v12.972972972972974h-12.972972972972974zM509.1891891891892 500.5405405405405h12.972972972972974v12.972972972972974h-12.972972972972974zM522.1621621621622 500.5405405405405h12.972972972972974v12.972972972972974h-12.972972972972974zM561.081081081081 500.5405405405405h12.972972972972974v12.972972972972974h-12.972972972972974zM574.0540540540541 500.5405405405405h12.972972972972974v12.972972972972974h-12.972972972972974zM587.0270270270271 500.5405405405405h12.972972972972974v12.972972972972974h-12.972972972972974zM132.97297297297297 513.5135135135135h12.972972972972974v12.972972972972974h-12.972972972972974zM184.86486486486487 513.5135135135135h12.972972972972974v12.972972972972974h-12.972972972972974zM197.83783783783784 513.5135135135135h12.972972972972974v12.972972972972974h-12.972972972972974zM210.81081081081084 513.5135135135135h12.972972972972974v12.972972972972974h-12.972972972972974zM262.7027027027027 513.5135135135135h12.972972972972974v12.972972972972974h-12.972972972972974zM275.6756756756757 513.5135135135135h12.972972972972974v12.972972972972974h-12.972972972972974zM314.5945945945946 513.5135135135135h12.972972972972974v12.972972972972974h-12.972972972972974zM353.51351351351354 513.5135135135135h12.972972972972974v12.972972972972974h-12.972972972972974zM392.43243243243245 513.5135135135135h12.972972972972974v12.972972972972974h-12.972972972972974zM431.35135135135135 513.5135135135135h12.972972972972974v12.972972972972974h-12.972972972972974zM470.2702702702703 513.5135135135135h12.972972972972974v12.972972972972974h-12.972972972972974zM483.2432432432433 513.5135135135135h12.972972972972974v12.972972972972974h-12.972972972972974zM496.21621621621625 513.5135135135135h12.972972972972974v12.972972972972974h-12.972972972972974zM548.1081081081081 513.5135135135135h12.972972972972974v12.972972972972974h-12.972972972972974zM574.0540540540541 513.5135135135135h12.972972972972974v12.972972972972974h-12.972972972972974zM587.0270270270271 513.5135135135135h12.972972972972974v12.972972972972974h-12.972972972972974zM132.97297297297297 526.4864864864865h12.972972972972974v12.972972972972974h-12.972972972972974zM171.8918918918919 526.4864864864865h12.972972972972974v12.972972972972974h-12.972972972972974zM210.81081081081084 526.4864864864865h12.972972972972974v12.972972972972974h-12.972972972972974zM223.7837837837838 526.4864864864865h12.972972972972974v12.972972972972974h-12.972972972972974zM249.72972972972974 526.4864864864865h12.972972972972974v12.972972972972974h-12.972972972972974zM314.5945945945946 526.4864864864865h12.972972972972974v12.972972972972974h-12.972972972972974zM327.5675675675676 526.4864864864865h12.972972972972974v12.972972972972974h-12.972972972972974zM340.5405405405405 526.4864864864865h12.972972972972974v12.972972972972974h-12.972972972972974zM353.51351351351354 526.4864864864865h12.972972972972974v12.972972972972974h-12.972972972972974zM366.4864864864865 526.4864864864865h12.972972972972974v12.972972972972974h-12.972972972972974zM379.4594594594595 526.4864864864865h12.972972972972974v12.972972972972974h-12.972972972972974zM431.35135135135135 526.4864864864865h12.972972972972974v12.972972972972974h-12.972972972972974zM483.2432432432433 526.4864864864865h12.972972972972974v12.972972972972974h-12.972972972972974zM496.21621621621625 526.4864864864865h12.972972972972974v12.972972972972974h-12.972972972972974zM509.1891891891892 526.4864864864865h12.972972972972974v12.972972972972974h-12.972972972972974zM535.1351351351352 526.4864864864865h12.972972972972974v12.972972972972974h-12.972972972972974zM574.0540540540541 526.4864864864865h12.972972972972974v12.972972972972974h-12.972972972972974zM132.97297297297297 539.4594594594595h12.972972972972974v12.972972972972974h-12.972972972972974zM184.86486486486487 539.4594594594595h12.972972972972974v12.972972972972974h-12.972972972972974zM197.83783783783784 539.4594594594595h12.972972972972974v12.972972972972974h-12.972972972972974zM262.7027027027027 539.4594594594595h12.972972972972974v12.972972972972974h-12.972972972972974zM275.6756756756757 539.4594594594595h12.972972972972974v12.972972972972974h-12.972972972972974zM301.62162162162167 539.4594594594595h12.972972972972974v12.972972972972974h-12.972972972972974zM314.5945945945946 539.4594594594595h12.972972972972974v12.972972972972974h-12.972972972972974zM327.5675675675676 539.4594594594595h12.972972972972974v12.972972972972974h-12.972972972972974zM340.5405405405405 539.4594594594595h12.972972972972974v12.972972972972974h-12.972972972972974zM353.51351351351354 539.4594594594595h12.972972972972974v12.972972972972974h-12.972972972972974zM366.4864864864865 539.4594594594595h12.972972972972974v12.972972972972974h-12.972972972972974zM392.43243243243245 539.4594594594595h12.972972972972974v12.972972972972974h-12.972972972972974zM405.4054054054054 539.4594594594595h12.972972972972974v12.972972972972974h-12.972972972972974zM457.2972972972973 539.4594594594595h12.972972972972974v12.972972972972974h-12.972972972972974zM470.2702702702703 539.4594594594595h12.972972972972974v12.972972972972974h-12.972972972972974zM483.2432432432433 539.4594594594595h12.972972972972974v12.972972972972974h-12.972972972972974zM496.21621621621625 539.4594594594595h12.972972972972974v12.972972972972974h-12.972972972972974zM522.1621621621622 539.4594594594595h12.972972972972974v12.972972972972974h-12.972972972972974zM535.1351351351352 539.4594594594595h12.972972972972974v12.972972972972974h-12.972972972972974zM587.0270270270271 539.4594594594595h12.972972972972974v12.972972972972974h-12.972972972972974zM145.94594594594594 552.4324324324325h12.972972972972974v12.972972972972974h-12.972972972972974zM171.8918918918919 552.4324324324325h12.972972972972974v12.972972972972974h-12.972972972972974zM210.81081081081084 552.4324324324325h12.972972972972974v12.972972972972974h-12.972972972972974zM223.7837837837838 552.4324324324325h12.972972972972974v12.972972972972974h-12.972972972972974zM249.72972972972974 552.4324324324325h12.972972972972974v12.972972972972974h-12.972972972972974zM262.7027027027027 552.4324324324325h12.972972972972974v12.972972972972974h-12.972972972972974zM275.6756756756757 552.4324324324325h12.972972972972974v12.972972972972974h-12.972972972972974zM301.62162162162167 552.4324324324325h12.972972972972974v12.972972972972974h-12.972972972972974zM327.5675675675676 552.4324324324325h12.972972972972974v12.972972972972974h-12.972972972972974zM340.5405405405405 552.4324324324325h12.972972972972974v12.972972972972974h-12.972972972972974zM353.51351351351354 552.4324324324325h12.972972972972974v12.972972972972974h-12.972972972972974zM366.4864864864865 552.4324324324325h12.972972972972974v12.972972972972974h-12.972972972972974zM379.4594594594595 552.4324324324325h12.972972972972974v12.972972972972974h-12.972972972972974zM392.43243243243245 552.4324324324325h12.972972972972974v12.972972972972974h-12.972972972972974zM418.3783783783784 552.4324324324325h12.972972972972974v12.972972972972974h-12.972972972972974zM457.2972972972973 552.4324324324325h12.972972972972974v12.972972972972974h-12.972972972972974zM483.2432432432433 552.4324324324325h12.972972972972974v12.972972972972974h-12.972972972972974zM496.21621621621625 552.4324324324325h12.972972972972974v12.972972972972974h-12.972972972972974zM548.1081081081081 552.4324324324325h12.972972972972974v12.972972972972974h-12.972972972972974zM574.0540540540541 552.4324324324325h12.972972972972974v12.972972972972974h-12.972972972972974zM197.83783783783784 565.4054054054054h12.972972972972974v12.972972972972974h-12.972972972972974zM210.81081081081084 565.4054054054054h12.972972972972974v12.972972972972974h-12.972972972972974zM223.7837837837838 565.4054054054054h12.972972972972974v12.972972972972974h-12.972972972972974zM236.75675675675677 565.4054054054054h12.972972972972974v12.972972972972974h-12.972972972972974zM249.72972972972974 565.4054054054054h12.972972972972974v12.972972972972974h-12.972972972972974zM275.6756756756757 565.4054054054054h12.972972972972974v12.972972972972974h-12.972972972972974zM288.64864864864865 565.4054054054054h12.972972972972974v12.972972972972974h-12.972972972972974zM327.5675675675676 565.4054054054054h12.972972972972974v12.972972972972974h-12.972972972972974zM379.4594594594595 565.4054054054054h12.972972972972974v12.972972972972974h-12.972972972972974zM392.43243243243245 565.4054054054054h12.972972972972974v12.972972972972974h-12.972972972972974zM418.3783783783784 565.4054054054054h12.972972972972974v12.972972972972974h-12.972972972972974zM431.35135135135135 565.4054054054054h12.972972972972974v12.972972972972974h-12.972972972972974zM496.21621621621625 565.4054054054054h12.972972972972974v12.972972972972974h-12.972972972972974zM522.1621621621622 565.4054054054054h12.972972972972974v12.972972972972974h-12.972972972972974zM120 578.3783783783783h12.972972972972974v12.972972972972974h-12.972972972972974zM145.94594594594594 578.3783783783783h12.972972972972974v12.972972972972974h-12.972972972972974zM171.8918918918919 578.3783783783783h12.972972972972974v12.972972972972974h-12.972972972972974zM184.86486486486487 578.3783783783783h12.972972972972974v12.972972972972974h-12.972972972972974zM210.81081081081084 578.3783783783783h12.972972972972974v12.972972972972974h-12.972972972972974zM249.72972972972974 578.3783783783783h12.972972972972974v12.972972972972974h-12.972972972972974zM262.7027027027027 578.3783783783783h12.972972972972974v12.972972972972974h-12.972972972972974zM275.6756756756757 578.3783783783783h12.972972972972974v12.972972972972974h-12.972972972972974zM288.64864864864865 578.3783783783783h12.972972972972974v12.972972972972974h-12.972972972972974zM327.5675675675676 578.3783783783783h12.972972972972974v12.972972972972974h-12.972972972972974zM353.51351351351354 578.3783783783783h12.972972972972974v12.972972972972974h-12.972972972972974zM366.4864864864865 578.3783783783783h12.972972972972974v12.972972972972974h-12.972972972972974zM379.4594594594595 578.3783783783783h12.972972972972974v12.972972972972974h-12.972972972972974zM418.3783783783784 578.3783783783783h12.972972972972974v12.972972972972974h-12.972972972972974zM431.35135135135135 578.3783783783783h12.972972972972974v12.972972972972974h-12.972972972972974zM444.3243243243243 578.3783783783783h12.972972972972974v12.972972972972974h-12.972972972972974zM483.2432432432433 578.3783783783783h12.972972972972974v12.972972972972974h-12.972972972972974zM496.21621621621625 578.3783783783783h12.972972972972974v12.972972972972974h-12.972972972972974zM535.1351351351352 578.3783783783783h12.972972972972974v12.972972972972974h-12.972972972972974zM548.1081081081081 578.3783783783783h12.972972972972974v12.972972972972974h-12.972972972972974zM561.081081081081 578.3783783783783h12.972972972972974v12.972972972972974h-12.972972972972974zM120 591.3513513513514h12.972972972972974v12.972972972972974h-12.972972972972974zM132.97297297297297 591.3513513513514h12.972972972972974v12.972972972972974h-12.972972972972974zM171.8918918918919 591.3513513513514h12.972972972972974v12.972972972972974h-12.972972972972974zM184.86486486486487 591.3513513513514h12.972972972972974v12.972972972972974h-12.972972972972974zM197.83783783783784 591.3513513513514h12.972972972972974v12.972972972972974h-12.972972972972974zM210.81081081081084 591.3513513513514h12.972972972972974v12.972972972972974h-12.972972972972974zM236.75675675675677 591.3513513513514h12.972972972972974v12.972972972972974h-12.972972972972974zM249.72972972972974 591.3513513513514h12.972972972972974v12.972972972972974h-12.972972972972974zM262.7027027027027 591.3513513513514h12.972972972972974v12.972972972972974h-12.972972972972974zM275.6756756756757 591.3513513513514h12.972972972972974v12.972972972972974h-12.972972972972974zM301.62162162162167 591.3513513513514h12.972972972972974v12.972972972972974h-12.972972972972974zM340.5405405405405 591.3513513513514h12.972972972972974v12.972972972972974h-12.972972972972974zM379.4594594594595 591.3513513513514h12.972972972972974v12.972972972972974h-12.972972972972974zM405.4054054054054 591.3513513513514h12.972972972972974v12.972972972972974h-12.972972972972974zM431.35135135135135 591.3513513513514h12.972972972972974v12.972972972972974h-12.972972972972974zM444.3243243243243 591.3513513513514h12.972972972972974v12.972972972972974h-12.972972972972974zM457.2972972972973 591.3513513513514h12.972972972972974v12.972972972972974h-12.972972972972974zM470.2702702702703 591.3513513513514h12.972972972972974v12.972972972972974h-12.972972972972974zM496.21621621621625 591.3513513513514h12.972972972972974v12.972972972972974h-12.972972972972974zM509.1891891891892 591.3513513513514h12.972972972972974v12.972972972972974h-12.972972972972974zM522.1621621621622 591.3513513513514h12.972972972972974v12.972972972972974h-12.972972972972974zM535.1351351351352 591.3513513513514h12.972972972972974v12.972972972972974h-12.972972972972974zM561.081081081081 591.3513513513514h12.972972972972974v12.972972972972974h-12.972972972972974zM587.0270270270271 591.3513513513514h12.972972972972974v12.972972972972974h-12.972972972972974zM132.97297297297297 604.3243243243244h12.972972972972974v12.972972972972974h-12.972972972972974zM158.9189189189189 604.3243243243244h12.972972972972974v12.972972972972974h-12.972972972972974zM223.7837837837838 604.3243243243244h12.972972972972974v12.972972972972974h-12.972972972972974zM236.75675675675677 604.3243243243244h12.972972972972974v12.972972972972974h-12.972972972972974zM249.72972972972974 604.3243243243244h12.972972972972974v12.972972972972974h-12.972972972972974zM275.6756756756757 604.3243243243244h12.972972972972974v12.972972972972974h-12.972972972972974zM301.62162162162167 604.3243243243244h12.972972972972974v12.972972972972974h-12.972972972972974zM314.5945945945946 604.3243243243244h12.972972972972974v12.972972972972974h-12.972972972972974zM327.5675675675676 604.3243243243244h12.972972972972974v12.972972972972974h-12.972972972972974zM366.4864864864865 604.3243243243244h12.972972972972974v12.972972972972974h-12.972972972972974zM392.43243243243245 604.3243243243244h12.972972972972974v12.972972972972974h-12.972972972972974zM457.2972972972973 604.3243243243244h12.972972972972974v12.972972972972974h-12.972972972972974zM470.2702702702703 604.3243243243244h12.972972972972974v12.972972972972974h-12.972972972972974zM483.2432432432433 604.3243243243244h12.972972972972974v12.972972972972974h-12.972972972972974zM509.1891891891892 604.3243243243244h12.972972972972974v12.972972972972974h-12.972972972972974zM522.1621621621622 604.3243243243244h12.972972972972974v12.972972972972974h-12.972972972972974zM535.1351351351352 604.3243243243244h12.972972972972974v12.972972972972974h-12.972972972972974zM548.1081081081081 604.3243243243244h12.972972972972974v12.972972972972974h-12.972972972972974zM561.081081081081 604.3243243243244h12.972972972972974v12.972972972972974h-12.972972972972974zM574.0540540540541 604.3243243243244h12.972972972972974v12.972972972972974h-12.972972972972974zM587.0270270270271 604.3243243243244h12.972972972972974v12.972972972972974h-12.972972972972974zM132.97297297297297 617.2972972972973h12.972972972972974v12.972972972972974h-12.972972972972974zM171.8918918918919 617.2972972972973h12.972972972972974v12.972972972972974h-12.972972972972974zM197.83783783783784 617.2972972972973h12.972972972972974v12.972972972972974h-12.972972972972974zM223.7837837837838 617.2972972972973h12.972972972972974v12.972972972972974h-12.972972972972974zM236.75675675675677 617.2972972972973h12.972972972972974v12.972972972972974h-12.972972972972974zM275.6756756756757 617.2972972972973h12.972972972972974v12.972972972972974h-12.972972972972974zM340.5405405405405 617.2972972972973h12.972972972972974v12.972972972972974h-12.972972972972974zM353.51351351351354 617.2972972972973h12.972972972972974v12.972972972972974h-12.972972972972974zM366.4864864864865 617.2972972972973h12.972972972972974v12.972972972972974h-12.972972972972974zM379.4594594594595 617.2972972972973h12.972972972972974v12.972972972972974h-12.972972972972974zM392.43243243243245 617.2972972972973h12.972972972972974v12.972972972972974h-12.972972972972974zM431.35135135135135 617.2972972972973h12.972972972972974v12.972972972972974h-12.972972972972974zM444.3243243243243 617.2972972972973h12.972972972972974v12.972972972972974h-12.972972972972974zM457.2972972972973 617.2972972972973h12.972972972972974v12.972972972972974h-12.972972972972974zM522.1621621621622 617.2972972972973h12.972972972972974v12.972972972972974h-12.972972972972974zM548.1081081081081 617.2972972972973h12.972972972972974v12.972972972972974h-12.972972972972974zM561.081081081081 617.2972972972973h12.972972972972974v12.972972972972974h-12.972972972972974zM574.0540540540541 617.2972972972973h12.972972972972974v12.972972972972974h-12.972972972972974zM120 630.2702702702703h12.972972972972974v12.972972972972974h-12.972972972972974zM171.8918918918919 630.2702702702703h12.972972972972974v12.972972972972974h-12.972972972972974zM236.75675675675677 630.2702702702703h12.972972972972974v12.972972972972974h-12.972972972972974zM262.7027027027027 630.2702702702703h12.972972972972974v12.972972972972974h-12.972972972972974zM275.6756756756757 630.2702702702703h12.972972972972974v12.972972972972974h-12.972972972972974zM288.64864864864865 630.2702702702703h12.972972972972974v12.972972972972974h-12.972972972972974zM301.62162162162167 630.2702702702703h12.972972972972974v12.972972972972974h-12.972972972972974zM314.5945945945946 630.2702702702703h12.972972972972974v12.972972972972974h-12.972972972972974zM392.43243243243245 630.2702702702703h12.972972972972974v12.972972972972974h-12.972972972972974zM418.3783783783784 630.2702702702703h12.972972972972974v12.972972972972974h-12.972972972972974zM457.2972972972973 630.2702702702703h12.972972972972974v12.972972972972974h-12.972972972972974zM470.2702702702703 630.2702702702703h12.972972972972974v12.972972972972974h-12.972972972972974zM483.2432432432433 630.2702702702703h12.972972972972974v12.972972972972974h-12.972972972972974zM496.21621621621625 630.2702702702703h12.972972972972974v12.972972972972974h-12.972972972972974zM587.0270270270271 630.2702702702703h12.972972972972974v12.972972972972974h-12.972972972972974zM197.83783783783784 643.2432432432433h12.972972972972974v12.972972972972974h-12.972972972972974zM223.7837837837838 643.2432432432433h12.972972972972974v12.972972972972974h-12.972972972972974zM288.64864864864865 643.2432432432433h12.972972972972974v12.972972972972974h-12.972972972972974zM301.62162162162167 643.2432432432433h12.972972972972974v12.972972972972974h-12.972972972972974zM314.5945945945946 643.2432432432433h12.972972972972974v12.972972972972974h-12.972972972972974zM392.43243243243245 643.2432432432433h12.972972972972974v12.972972972972974h-12.972972972972974zM405.4054054054054 643.2432432432433h12.972972972972974v12.972972972972974h-12.972972972972974zM418.3783783783784 643.2432432432433h12.972972972972974v12.972972972972974h-12.972972972972974zM444.3243243243243 643.2432432432433h12.972972972972974v12.972972972972974h-12.972972972972974zM470.2702702702703 643.2432432432433h12.972972972972974v12.972972972972974h-12.972972972972974zM483.2432432432433 643.2432432432433h12.972972972972974v12.972972972972974h-12.972972972972974zM496.21621621621625 643.2432432432433h12.972972972972974v12.972972972972974h-12.972972972972974zM509.1891891891892 643.2432432432433h12.972972972972974v12.972972972972974h-12.972972972972974zM522.1621621621622 643.2432432432433h12.972972972972974v12.972972972972974h-12.972972972972974zM535.1351351351352 643.2432432432433h12.972972972972974v12.972972972972974h-12.972972972972974zM561.081081081081 643.2432432432433h12.972972972972974v12.972972972972974h-12.972972972972974zM223.7837837837838 656.2162162162163h12.972972972972974v12.972972972972974h-12.972972972972974zM288.64864864864865 656.2162162162163h12.972972972972974v12.972972972972974h-12.972972972972974zM314.5945945945946 656.2162162162163h12.972972972972974v12.972972972972974h-12.972972972972974zM379.4594594594595 656.2162162162163h12.972972972972974v12.972972972972974h-12.972972972972974zM405.4054054054054 656.2162162162163h12.972972972972974v12.972972972972974h-12.972972972972974zM418.3783783783784 656.2162162162163h12.972972972972974v12.972972972972974h-12.972972972972974zM431.35135135135135 656.2162162162163h12.972972972972974v12.972972972972974h-12.972972972972974zM470.2702702702703 656.2162162162163h12.972972972972974v12.972972972972974h-12.972972972972974zM483.2432432432433 656.2162162162163h12.972972972972974v12.972972972972974h-12.972972972972974zM535.1351351351352 656.2162162162163h12.972972972972974v12.972972972972974h-12.972972972972974zM561.081081081081 656.2162162162163h12.972972972972974v12.972972972972974h-12.972972972972974zM574.0540540540541 656.2162162162163h12.972972972972974v12.972972972972974h-12.972972972972974zM587.0270270270271 656.2162162162163h12.972972972972974v12.972972972972974h-12.972972972972974zM120 669.1891891891892h12.972972972972974v12.972972972972974h-12.972972972972974zM132.97297297297297 669.1891891891892h12.972972972972974v12.972972972972974h-12.972972972972974zM145.94594594594594 669.1891891891892h12.972972972972974v12.972972972972974h-12.972972972972974zM158.9189189189189 669.1891891891892h12.972972972972974v12.972972972972974h-12.972972972972974zM171.8918918918919 669.1891891891892h12.972972972972974v12.972972972972974h-12.972972972972974zM184.86486486486487 669.1891891891892h12.972972972972974v12.972972972972974h-12.972972972972974zM197.83783783783784 669.1891891891892h12.972972972972974v12.972972972972974h-12.972972972972974zM223.7837837837838 669.1891891891892h12.972972972972974v12.972972972972974h-12.972972972972974zM249.72972972972974 669.1891891891892h12.972972972972974v12.972972972972974h-12.972972972972974zM314.5945945945946 669.1891891891892h12.972972972972974v12.972972972972974h-12.972972972972974zM327.5675675675676 669.1891891891892h12.972972972972974v12.972972972972974h-12.972972972972974zM379.4594594594595 669.1891891891892h12.972972972972974v12.972972972972974h-12.972972972972974zM392.43243243243245 669.1891891891892h12.972972972972974v12.972972972972974h-12.972972972972974zM405.4054054054054 669.1891891891892h12.972972972972974v12.972972972972974h-12.972972972972974zM483.2432432432433 669.1891891891892h12.972972972972974v12.972972972972974h-12.972972972972974zM509.1891891891892 669.1891891891892h12.972972972972974v12.972972972972974h-12.972972972972974zM535.1351351351352 669.1891891891892h12.972972972972974v12.972972972972974h-12.972972972972974zM561.081081081081 669.1891891891892h12.972972972972974v12.972972972972974h-12.972972972972974zM574.0540540540541 669.1891891891892h12.972972972972974v12.972972972972974h-12.972972972972974zM587.0270270270271 669.1891891891892h12.972972972972974v12.972972972972974h-12.972972972972974zM120 682.1621621621622h12.972972972972974v12.972972972972974h-12.972972972972974zM197.83783783783784 682.1621621621622h12.972972972972974v12.972972972972974h-12.972972972972974zM223.7837837837838 682.1621621621622h12.972972972972974v12.972972972972974h-12.972972972972974zM236.75675675675677 682.1621621621622h12.972972972972974v12.972972972972974h-12.972972972972974zM249.72972972972974 682.1621621621622h12.972972972972974v12.972972972972974h-12.972972972972974zM301.62162162162167 682.1621621621622h12.972972972972974v12.972972972972974h-12.972972972972974zM327.5675675675676 682.1621621621622h12.972972972972974v12.972972972972974h-12.972972972972974zM340.5405405405405 682.1621621621622h12.972972972972974v12.972972972972974h-12.972972972972974zM353.51351351351354 682.1621621621622h12.972972972972974v12.972972972972974h-12.972972972972974zM379.4594594594595 682.1621621621622h12.972972972972974v12.972972972972974h-12.972972972972974zM405.4054054054054 682.1621621621622h12.972972972972974v12.972972972972974h-12.972972972972974zM418.3783783783784 682.1621621621622h12.972972972972974v12.972972972972974h-12.972972972972974zM431.35135135135135 682.1621621621622h12.972972972972974v12.972972972972974h-12.972972972972974zM470.2702702702703 682.1621621621622h12.972972972972974v12.972972972972974h-12.972972972972974zM483.2432432432433 682.1621621621622h12.972972972972974v12.972972972972974h-12.972972972972974zM535.1351351351352 682.1621621621622h12.972972972972974v12.972972972972974h-12.972972972972974zM574.0540540540541 682.1621621621622h12.972972972972974v12.972972972972974h-12.972972972972974zM120 695.1351351351352h12.972972972972974v12.972972972972974h-12.972972972972974zM145.94594594594594 695.1351351351352h12.972972972972974v12.972972972972974h-12.972972972972974zM158.9189189189189 695.1351351351352h12.972972972972974v12.972972972972974h-12.972972972972974zM171.8918918918919 695.1351351351352h12.972972972972974v12.972972972972974h-12.972972972972974zM197.83783783783784 695.1351351351352h12.972972972972974v12.972972972972974h-12.972972972972974zM236.75675675675677 695.1351351351352h12.972972972972974v12.972972972972974h-12.972972972972974zM275.6756756756757 695.1351351351352h12.972972972972974v12.972972972972974h-12.972972972972974zM288.64864864864865 695.1351351351352h12.972972972972974v12.972972972972974h-12.972972972972974zM301.62162162162167 695.1351351351352h12.972972972972974v12.972972972972974h-12.972972972972974zM314.5945945945946 695.1351351351352h12.972972972972974v12.972972972972974h-12.972972972972974zM327.5675675675676 695.1351351351352h12.972972972972974v12.972972972972974h-12.972972972972974zM340.5405405405405 695.1351351351352h12.972972972972974v12.972972972972974h-12.972972972972974zM353.51351351351354 695.1351351351352h12.972972972972974v12.972972972972974h-12.972972972972974zM379.4594594594595 695.1351351351352h12.972972972972974v12.972972972972974h-12.972972972972974zM392.43243243243245 695.1351351351352h12.972972972972974v12.972972972972974h-12.972972972972974zM405.4054054054054 695.1351351351352h12.972972972972974v12.972972972972974h-12.972972972972974zM418.3783783783784 695.1351351351352h12.972972972972974v12.972972972972974h-12.972972972972974zM457.2972972972973 695.1351351351352h12.972972972972974v12.972972972972974h-12.972972972972974zM483.2432432432433 695.1351351351352h12.972972972972974v12.972972972972974h-12.972972972972974zM496.21621621621625 695.1351351351352h12.972972972972974v12.972972972972974h-12.972972972972974zM509.1891891891892 695.1351351351352h12.972972972972974v12.972972972972974h-12.972972972972974zM522.1621621621622 695.1351351351352h12.972972972972974v12.972972972972974h-12.972972972972974zM535.1351351351352 695.1351351351352h12.972972972972974v12.972972972972974h-12.972972972972974zM548.1081081081081 695.1351351351352h12.972972972972974v12.972972972972974h-12.972972972972974zM574.0540540540541 695.1351351351352h12.972972972972974v12.972972972972974h-12.972972972972974zM120 708.1081081081081h12.972972972972974v12.972972972972974h-12.972972972972974zM145.94594594594594 708.1081081081081h12.972972972972974v12.972972972972974h-12.972972972972974zM158.9189189189189 708.1081081081081h12.972972972972974v12.972972972972974h-12.972972972972974zM171.8918918918919 708.1081081081081h12.972972972972974v12.972972972972974h-12.972972972972974zM197.83783783783784 708.1081081081081h12.972972972972974v12.972972972972974h-12.972972972972974zM223.7837837837838 708.1081081081081h12.972972972972974v12.972972972972974h-12.972972972972974zM249.72972972972974 708.1081081081081h12.972972972972974v12.972972972972974h-12.972972972972974zM275.6756756756757 708.1081081081081h12.972972972972974v12.972972972972974h-12.972972972972974zM288.64864864864865 708.1081081081081h12.972972972972974v12.972972972972974h-12.972972972972974zM327.5675675675676 708.1081081081081h12.972972972972974v12.972972972972974h-12.972972972972974zM340.5405405405405 708.1081081081081h12.972972972972974v12.972972972972974h-12.972972972972974zM366.4864864864865 708.1081081081081h12.972972972972974v12.972972972972974h-12.972972972972974zM379.4594594594595 708.1081081081081h12.972972972972974v12.972972972972974h-12.972972972972974zM392.43243243243245 708.1081081081081h12.972972972972974v12.972972972972974h-12.972972972972974zM405.4054054054054 708.1081081081081h12.972972972972974v12.972972972972974h-12.972972972972974zM418.3783783783784 708.1081081081081h12.972972972972974v12.972972972972974h-12.972972972972974zM496.21621621621625 708.1081081081081h12.972972972972974v12.972972972972974h-12.972972972972974zM509.1891891891892 708.1081081081081h12.972972972972974v12.972972972972974h-12.972972972972974zM535.1351351351352 708.1081081081081h12.972972972972974v12.972972972972974h-12.972972972972974zM548.1081081081081 708.1081081081081h12.972972972972974v12.972972972972974h-12.972972972972974zM574.0540540540541 708.1081081081081h12.972972972972974v12.972972972972974h-12.972972972972974zM587.0270270270271 708.1081081081081h12.972972972972974v12.972972972972974h-12.972972972972974zM120 721.081081081081h12.972972972972974v12.972972972972974h-12.972972972972974zM145.94594594594594 721.081081081081h12.972972972972974v12.972972972972974h-12.972972972972974zM158.9189189189189 721.081081081081h12.972972972972974v12.972972972972974h-12.972972972972974zM171.8918918918919 721.081081081081h12.972972972972974v12.972972972972974h-12.972972972972974zM197.83783783783784 721.081081081081h12.972972972972974v12.972972972972974h-12.972972972972974zM223.7837837837838 721.081081081081h12.972972972972974v12.972972972972974h-12.972972972972974zM262.7027027027027 721.081081081081h12.972972972972974v12.972972972972974h-12.972972972972974zM275.6756756756757 721.081081081081h12.972972972972974v12.972972972972974h-12.972972972972974zM288.64864864864865 721.081081081081h12.972972972972974v12.972972972972974h-12.972972972972974zM353.51351351351354 721.081081081081h12.972972972972974v12.972972972972974h-12.972972972972974zM392.43243243243245 721.081081081081h12.972972972972974v12.972972972972974h-12.972972972972974zM405.4054054054054 721.081081081081h12.972972972972974v12.972972972972974h-12.972972972972974zM418.3783783783784 721.081081081081h12.972972972972974v12.972972972972974h-12.972972972972974zM470.2702702702703 721.081081081081h12.972972972972974v12.972972972972974h-12.972972972972974zM509.1891891891892 721.081081081081h12.972972972972974v12.972972972972974h-12.972972972972974zM535.1351351351352 721.081081081081h12.972972972972974v12.972972972972974h-12.972972972972974zM548.1081081081081 721.081081081081h12.972972972972974v12.972972972972974h-12.972972972972974zM120 734.0540540540541h12.972972972972974v12.972972972972974h-12.972972972972974zM197.83783783783784 734.0540540540541h12.972972972972974v12.972972972972974h-12.972972972972974zM262.7027027027027 734.0540540540541h12.972972972972974v12.972972972972974h-12.972972972972974zM288.64864864864865 734.0540540540541h12.972972972972974v12.972972972972974h-12.972972972972974zM353.51351351351354 734.0540540540541h12.972972972972974v12.972972972972974h-12.972972972972974zM366.4864864864865 734.0540540540541h12.972972972972974v12.972972972972974h-12.972972972972974zM379.4594594594595 734.0540540540541h12.972972972972974v12.972972972972974h-12.972972972972974zM418.3783783783784 734.0540540540541h12.972972972972974v12.972972972972974h-12.972972972972974zM431.35135135135135 734.0540540540541h12.972972972972974v12.972972972972974h-12.972972972972974zM444.3243243243243 734.0540540540541h12.972972972972974v12.972972972972974h-12.972972972972974zM457.2972972972973 734.0540540540541h12.972972972972974v12.972972972972974h-12.972972972972974zM470.2702702702703 734.0540540540541h12.972972972972974v12.972972972972974h-12.972972972972974zM522.1621621621622 734.0540540540541h12.972972972972974v12.972972972972974h-12.972972972972974zM535.1351351351352 734.0540540540541h12.972972972972974v12.972972972972974h-12.972972972972974zM548.1081081081081 734.0540540540541h12.972972972972974v12.972972972972974h-12.972972972972974zM561.081081081081 734.0540540540541h12.972972972972974v12.972972972972974h-12.972972972972974zM120 747.0270270270271h12.972972972972974v12.972972972972974h-12.972972972972974zM132.97297297297297 747.0270270270271h12.972972972972974v12.972972972972974h-12.972972972972974zM145.94594594594594 747.0270270270271h12.972972972972974v12.972972972972974h-12.972972972972974zM158.9189189189189 747.0270270270271h12.972972972972974v12.972972972972974h-12.972972972972974zM171.8918918918919 747.0270270270271h12.972972972972974v12.972972972972974h-12.972972972972974zM184.86486486486487 747.0270270270271h12.972972972972974v12.972972972972974h-12.972972972972974zM197.83783783783784 747.0270270270271h12.972972972972974v12.972972972972974h-12.972972972972974zM223.7837837837838 747.0270270270271h12.972972972972974v12.972972972972974h-12.972972972972974zM236.75675675675677 747.0270270270271h12.972972972972974v12.972972972972974h-12.972972972972974zM262.7027027027027 747.0270270270271h12.972972972972974v12.972972972972974h-12.972972972972974zM275.6756756756757 747.0270270270271h12.972972972972974v12.972972972972974h-12.972972972972974zM288.64864864864865 747.0270270270271h12.972972972972974v12.972972972972974h-12.972972972972974zM314.5945945945946 747.0270270270271h12.972972972972974v12.972972972972974h-12.972972972972974zM340.5405405405405 747.0270270270271h12.972972972972974v12.972972972972974h-12.972972972972974zM366.4864864864865 747.0270270270271h12.972972972972974v12.972972972972974h-12.972972972972974zM405.4054054054054 747.0270270270271h12.972972972972974v12.972972972972974h-12.972972972972974zM418.3783783783784 747.0270270270271h12.972972972972974v12.972972972972974h-12.972972972972974zM431.35135135135135 747.0270270270271h12.972972972972974v12.972972972972974h-12.972972972972974zM444.3243243243243 747.0270270270271h12.972972972972974v12.972972972972974h-12.972972972972974zM470.2702702702703 747.0270270270271h12.972972972972974v12.972972972972974h-12.972972972972974zM535.1351351351352 747.0270270270271h12.972972972972974v12.972972972972974h-12.972972972972974zM561.081081081081 747.0270270270271h12.972972972972974v12.972972972972974h-12.972972972972974zM574.0540540540541 747.0270270270271h12.972972972972974v12.972972972972974h-12.972972972972974zM587.0270270270271 747.0270270270271h12.972972972972974v12.972972972972974h-12.972972972972974z" fill="#0b1020"/>

    <!-- Logo overlay (subtle) -->
    <g transform="translate(324, 484)">
      <rect width="72" height="72" rx="18" fill="#ffffff"/>
      <rect x="6" y="6" width="60" height="60" rx="14" fill="#7c7dff"/>
      <text x="36" y="48" text-anchor="middle" font-size="36" font-weight="900" fill="#ffffff">M</text>
    </g>

    <!-- Display URL -->
    <text x="360" y="830" text-anchor="middle" font-size="18" font-weight="700" fill="#ffffff">app.mindprep.ai/marketing</text>
    <text x="360" y="856" text-anchor="middle" font-size="13" font-weight="500" fill="#a4adc6">Scannez avec l'appareil photo de votre téléphone</text>

    <!-- Footer accent -->
    <rect x="92" y="868" width="536" height="2" rx="1" fill="#7c7dff" fill-opacity="0.18"/>
    <text x="92" y="896" font-size="11" font-weight="600" fill="#a4adc6">SaaS / EdTech · IA pédagogique</text>
    <text x="628" y="896" text-anchor="end" font-size="11" font-weight="600" fill="#a4adc6">MARKETING</text>
  </g>
</svg>